# 3ds Max Wavefront OBJ Exporter v0.97b - (c)2007 guruware
# File Created: 09.02.2012 20:51:51

#
# object Helix001
#

v  8.7644 0.0000 0.2641
v  5.0703 1.4147 7.1243
v  8.3241 1.0288 4.4304
v  9.4409 0.3865 0.2864
v  9.3108 11.2382 1.4988
v  6.4456 14.5323 6.3696
v  8.3806 13.1492 5.7391
v  10.0423 11.0062 1.6472
v  8.4696 10.3441 -2.9100
v  9.1166 10.0211 -3.2066
v  5.1755 10.1932 -6.3040
v  5.5127 9.8550 -6.9224
v  0.3561 10.2011 -7.2641
v  0.2909 9.8634 -7.9653
v  -4.3128 9.7937 -5.2553
v  -4.7176 9.4266 -5.8128
v  -6.6305 9.0195 -2.1396
v  -7.1854 8.6025 -2.4965
v  -7.3146 7.8492 1.6604
v  -7.9105 7.3631 1.5279
v  -6.7104 5.8423 5.3820
v  -6.1757 6.4066 5.3162
v  -2.5957 3.7180 8.7881
v  -2.2476 4.3795 8.5654
v  1.4946 2.2943 9.2664
v  1.6875 3.0101 9.0246
v  5.4298 1.1401 7.7618
v  5.5077 1.8898 7.5627
v  8.3011 0.2623 4.5704
v  9.4303 -0.3865 0.3857
v  0.1759 2.8857 8.5643
v  -0.8759 9.3795 -7.0973
v  -4.2416 9.0224 -5.3430
v  -6.5099 8.2650 -2.2947
v  -7.1761 7.1265 1.4028
v  -6.6320 6.2135 3.8312
v  -2.2981 3.7809 8.0679
v  4.0703 9.4281 -6.8703
v  7.9363 9.4813 -3.9213
v  9.4813 10.1760 0.5808
v  8.4237 11.9707 4.8959
v  5.5275 14.8832 7.3701
v  5.2411 16.2799 7.5747
v  8.8440 23.0323 -6.3775
v  12.7031 21.7228 -4.8216
v  10.5371 22.0181 -5.2703
v  6.7198 23.2806 -5.5594
v  4.6078 24.2303 -5.3932
v  3.1631 23.9690 -3.5582
v  1.2931 24.3614 -2.1435
v  0.9803 23.4071 0.0365
v  -0.0291 22.9432 2.1845
v  0.5425 20.9339 5.1384
v  1.5861 20.0437 5.4098
v  3.0280 17.5121 7.4267
v  2.8720 18.9012 7.1026
v  1.1959 21.3530 5.2123
v  0.7498 23.7611 1.3326
v  2.5362 24.7284 -2.6505
v  5.9573 24.2938 -5.2348
v  9.8729 23.0747 -5.5452
v  13.7229 21.8888 -2.9051
v  15.3159 22.5316 1.3131
v  15.7272 24.4947 4.5681
v  15.9417 22.0821 1.4424
v  15.1916 21.3402 -1.4481
v  12.9120 21.2658 -3.6218
v  14.8501 21.2457 -0.2155
v  15.2603 22.8275 3.3369
v  15.3203 26.1648 5.4898
v  14.8224 25.0367 5.2580
v  16.6397 35.5577 -2.3681
v  20.2068 33.7167 -4.6000
v  17.1957 34.5963 -2.8227
v  14.6780 34.5773 0.6510
v  14.5141 35.3194 0.8317
v  13.7651 32.0295 4.0553
v  13.4918 32.4622 4.6459
v  13.9216 28.7915 6.0493
v  14.3371 27.9051 5.3140
v  14.4926 29.8483 5.7140
v  14.3067 33.0911 3.9571
v  15.1974 35.0064 1.0431
v  20.9308 33.1311 -3.9185
v  25.1574 30.3999 -1.2256
v  25.7352 30.0972 -1.6541
v  23.6477 31.2008 -3.8940
v  17.1154 35.2231 -1.8468
v  20.5404 32.6195 -4.3589
v  23.6834 30.3403 -3.1440
v  27.8329 31.9363 3.7053
v  28.0919 32.5657 4.0622
v  27.7190 33.0129 3.5441
v  27.4753 32.4207 3.2083
v  25.6087 29.5756 -0.6711
v  28.2088 32.1951 3.0719
v  28.4528 32.7881 3.4081
# 97 vertices

vn -0.4007 0.8788 -0.2593
vn -0.1733 0.7948 -0.5815
vn -0.1337 0.9538 -0.2691
vn -0.4729 0.8425 -0.2580
vn 0.3547 0.8914 -0.2822
vn 0.3803 0.7156 -0.5859
vn 0.4786 0.8237 -0.3039
vn 0.3419 0.8953 -0.2855
vn 0.3184 0.9029 -0.2888
vn 0.3184 0.9029 -0.2889
vn 0.1949 0.9014 -0.3867
vn 0.1940 0.9014 -0.3871
vn -0.0807 0.9009 -0.4265
vn -0.0824 0.9009 -0.4262
vn -0.3864 0.8739 -0.2949
vn -0.3922 0.8730 -0.2900
vn -0.5880 0.8083 -0.0302
vn -0.5882 0.8081 -0.0296
vn -0.6431 0.7102 0.2863
vn -0.6431 0.7100 0.2869
vn -0.5270 0.5725 0.6281
vn -0.5245 0.5707 0.6318
vn -0.2028 0.4065 0.8908
vn -0.2098 0.4094 0.8879
vn 0.2058 0.2629 0.9426
vn 0.2039 0.2636 0.9428
vn 0.5920 0.1487 0.7921
vn 0.5901 0.1495 0.7934
vn 0.8831 0.0584 0.4656
vn 0.8822 0.0590 0.4673
vn 0.9661 0.0196 0.2574
vn 0.9661 0.0198 0.2573
vn -0.3762 -0.9136 -0.1544
vn -0.4887 -0.8684 -0.0841
vn -0.4469 -0.8932 -0.0504
vn -0.2949 -0.9538 0.0574
vn -0.3838 -0.9076 -0.1703
vn -0.2966 -0.9277 -0.2267
vn -0.2462 -0.8373 -0.4882
vn 0.0016 -0.8594 -0.5112
vn -0.1865 -0.7359 -0.6509
vn -0.2419 -0.8431 -0.4802
vn -0.3188 -0.8671 -0.3829
vn -0.3188 -0.8671 -0.3827
vn -0.3381 -0.8943 -0.2932
vn -0.3411 -0.8931 -0.2933
vn -0.2978 -0.9246 -0.2378
vn -0.4016 -0.8860 -0.2317
vn -0.3047 -0.9291 -0.2097
vn -0.3071 -0.9284 -0.2092
vn -0.3279 -0.9299 -0.1664
vn -0.2011 0.7578 -0.6207
vn 0.1095 0.7787 -0.6178
vn 0.2263 0.5083 -0.8309
vn 0.5441 0.5254 -0.6541
vn 0.5286 0.4980 -0.6875
vn 0.9397 0.1744 -0.2942
vn 0.7497 0.5783 -0.3216
vn 0.9876 0.1549 0.0260
vn 0.9839 0.1736 0.0417
vn 0.9087 0.0603 0.4130
vn 0.9082 0.0600 0.4142
vn 0.3302 -0.2813 0.9010
vn -0.2599 -0.2462 0.9337
vn 0.0245 0.1001 0.9947
vn 0.6477 -0.0515 0.7601
vn 0.6508 -0.0263 0.7588
vn 0.2705 -0.8719 -0.4083
vn 0.1705 -0.7138 -0.6792
vn -0.7421 -0.2214 0.6327
vn -0.5467 0.1087 0.8303
vn 0.4930 -0.8649 -0.0945
vn 0.5616 -0.6965 -0.4467
vn -0.9527 -0.2527 0.1690
vn -0.9239 0.0815 0.3737
vn 0.5195 -0.7682 0.3741
vn 0.7765 -0.6287 0.0419
vn -0.8402 -0.5252 -0.1348
vn -0.9843 -0.0881 -0.1532
vn 0.2820 -0.5209 0.8057
vn 0.6806 -0.4373 0.5879
vn -0.6931 -0.5754 -0.4342
vn -0.7665 -0.3840 -0.5148
vn -0.0161 -0.1095 0.9939
vn 0.3527 -0.1012 0.9303
vn 0.7204 0.6546 -0.2291
vn -0.2401 -0.8523 -0.4647
vn 0.0414 -0.9168 -0.3972
vn -0.0014 -0.7631 -0.6463
vn -0.3419 -0.6995 -0.6276
vn -0.4054 -0.7907 -0.4587
vn -0.5075 -0.7083 -0.4907
vn -0.4808 -0.7713 -0.4170
vn -0.5109 -0.7578 -0.4058
vn -0.5229 -0.7487 -0.4074
vn -0.5188 -0.7398 -0.4283
vn -0.5016 -0.7089 -0.4958
vn -0.6646 -0.6566 -0.3565
vn -0.4532 0.1705 0.8750
vn -0.0765 0.1794 0.9808
vn 0.8938 0.2933 -0.3393
vn 0.7754 0.6031 -0.1869
vn -0.4185 0.5653 0.7108
vn -0.4519 0.5338 0.7148
vn 0.9589 0.2819 -0.0328
vn 0.9351 -0.2378 0.2629
vn 0.9766 0.1740 0.1261
vn -0.6179 0.7751 0.1315
vn -0.3755 0.8058 0.4580
vn -0.3620 0.8734 -0.3258
vn -0.3089 0.9509 0.0213
vn 0.6019 -0.3183 0.7324
vn 0.8145 -0.0766 0.5751
vn 0.0495 0.8210 -0.5688
vn -0.0396 0.9513 -0.3056
vn 0.1008 -0.1893 0.9767
vn 0.4102 -0.0312 0.9115
vn 0.4254 0.7325 -0.5316
vn 0.2779 0.8597 -0.4287
vn -0.4865 -0.0795 0.8701
vn -0.1413 0.1217 0.9824
vn 0.4902 0.7978 -0.3510
vn 0.6120 0.6941 -0.3791
vn 0.6207 0.6748 -0.3991
vn 0.8334 0.4203 -0.3588
vn 0.5886 0.6994 -0.4055
vn 0.6100 0.7126 -0.3466
vn 0.2050 -0.9775 -0.0502
vn 0.2769 -0.8916 -0.3583
vn -0.6559 -0.0180 0.7546
vn -0.9426 0.0108 0.3337
vn -0.7852 0.2996 0.5419
vn 0.2351 -0.8933 0.3830
vn 0.3820 -0.9195 0.0923
vn 0.3231 -0.5669 0.7578
vn 0.5868 -0.6269 0.5125
vn -0.9916 -0.1289 -0.0084
vn -0.9699 0.2433 -0.0084
vn 0.1385 -0.2199 0.9656
vn 0.2971 -0.3929 0.8703
vn -0.7519 -0.1145 -0.6493
vn -0.4239 -0.2874 -0.8589
vn -0.5820 0.0195 -0.8129
vn -0.8863 -0.0961 -0.4531
vn -0.8862 -0.0848 -0.4555
vn -0.9360 -0.1691 -0.3089
vn -0.9359 -0.1702 -0.3084
vn -0.9366 -0.2019 -0.2863
vn -0.9453 -0.1691 -0.2789
vn -0.9848 -0.1691 -0.0396
vn 0.6156 0.1993 -0.7624
vn 0.8024 0.4020 -0.4411
vn 0.0717 0.2993 0.9515
vn 0.3089 0.0879 0.9470
vn 0.7276 -0.3779 -0.5725
vn 0.8644 -0.0102 -0.5027
vn -0.0132 0.7567 0.6536
vn 0.2178 0.5389 0.8137
vn 0.8663 -0.4600 -0.1944
vn 0.2407 0.8664 0.4376
vn 0.2594 0.8613 0.4368
vn 0.5652 0.8209 0.0813
vn 0.3463 0.9193 -0.1867
vn 0.3472 0.9098 -0.2273
vn 0.5754 0.8084 -0.1242
vn 0.5413 0.8306 0.1310
vn 0.4225 0.8863 0.1896
vn 0.4143 0.8894 0.1929
vn 0.6555 -0.7552 0.0037
vn 0.6515 -0.7585 0.0124
vn 0.0435 -0.8279 0.5592
vn 0.4378 -0.7505 0.4950
vn -0.2809 -0.4940 0.8228
vn -0.3304 -0.5187 0.7885
vn -0.0133 -0.6304 -0.7762
vn -0.1299 -0.2817 -0.9507
vn 0.4453 -0.7970 -0.4081
vn 0.2560 -0.6574 -0.7087
vn -0.8332 -0.0502 0.5506
vn -0.8108 0.0018 0.5853
vn -0.8393 -0.0670 0.5395
vn -0.8405 -0.1014 0.5322
vn -0.8068 -0.1314 0.5761
vn -0.6840 -0.4564 0.5691
vn 0.6822 -0.6853 -0.2549
vn 0.7516 -0.6397 0.1609
vn 0.8198 -0.4978 0.2830
vn 0.7560 -0.6254 0.1930
vn 0.0905 0.7141 -0.6942
vn 0.0788 0.6969 -0.7128
vn -0.0089 0.4960 -0.8683
vn 0.1056 -0.1281 -0.9861
vn 0.3370 0.8190 0.4644
# 193 vertex normals

g Helix001
s 1
f 1//1 2//2 3//3 4//4 
s 2
f 5//5 6//6 7//7 8//8 
f 9//9 5//5 8//8 10//10 
f 11//11 9//9 10//10 12//12 
f 13//13 11//11 12//12 14//14 
f 15//15 13//13 14//14 16//16 
f 17//17 15//15 16//16 18//18 
f 19//19 17//17 18//18 20//20 
f 19//19 20//20 21//21 22//22 
f 22//22 21//21 23//23 24//24 
f 24//24 23//23 25//25 26//26 
f 26//26 25//25 27//27 28//28 
f 28//28 27//27 29//29 3//30 
f 3//30 29//29 30//31 4//32 
s 4
f 2//33 1//34 30//35 29//36 
f 2//33 29//36 27//37 31//38 
f 16//39 14//40 32//41 33//42 
f 18//43 16//39 33//42 34//44 
f 20//45 18//43 34//44 35//46 
f 21//47 20//45 35//46 36//48 
f 23//49 21//47 36//48 37//50 
f 25//51 23//49 37//50 31//38 
f 27//37 25//51 31//38 
s 1
f 28//52 3//3 2//2 26//53 
f 2//2 31//54 26//53 
f 31//54 37//55 24//56 26//53 
f 37//55 36//57 22//58 24//56 
f 19//59 22//58 36//57 35//60 
f 19//59 35//60 34//61 17//62 
f 32//63 38//64 13//65 15//66 
f 33//67 32//63 15//66 17//62 
f 34//61 33//67 17//62 
s 4
f 14//40 12//68 38//69 32//41 
s 1
f 38//64 39//70 11//71 13//65 
s 4
f 12//68 10//72 39//73 38//69 
s 1
f 39//70 40//74 9//75 11//71 
s 4
f 10//72 8//76 40//77 39//73 
s 1
f 40//74 41//78 5//79 9//75 
s 4
f 8//76 7//80 41//81 40//77 
s 1
f 41//78 42//82 6//83 5//79 
s 4
f 7//80 43//84 42//85 41//81 
s 2
f 43//86 7//7 6//6 
s 1
f 44//87 45//88 46//89 47//90 
f 48//91 44//87 47//90 49//92 
f 50//93 48//91 49//92 51//94 
f 52//95 50//93 51//94 53//96 
f 53//96 51//94 54//97 55//98 
f 55//98 54//97 6//83 42//82 
s 4
f 43//84 56//99 55//100 42//85 
s 2
f 6//6 54//101 56//102 43//86 
s 4
f 56//99 57//103 53//104 55//100 
s 2
f 57//105 56//102 54//101 51//106 
f 57//105 51//106 58//107 
s 4
f 57//103 58//108 52//109 53//104 
f 58//108 59//110 50//111 52//109 
s 2
f 51//106 49//112 59//113 58//107 
s 4
f 59//110 60//114 48//115 50//111 
s 2
f 49//112 47//116 60//117 59//113 
s 4
f 60//114 61//118 44//119 48//115 
s 2
f 47//116 46//120 61//121 60//117 
s 4
f 45//122 44//119 61//118 62//123 
f 63//124 64//125 65//126 62//123 
f 62//123 65//126 66//127 45//122 
s 1
f 45//88 66//128 67//129 46//89 
s 2
f 67//130 68//131 62//132 61//121 
f 46//120 67//130 61//121 
s 1
f 66//128 65//133 68//134 67//129 
f 65//133 64//135 69//136 68//134 
s 2
f 68//131 69//137 63//138 62//132 
s 1
f 64//135 70//139 71//140 69//136 
s 2
f 72//141 73//142 74//143 75//144 
f 76//145 72//141 75//144 77//146 
f 78//147 76//145 77//146 79//148 
f 79//148 77//146 80//149 71//150 
f 71//150 80//149 63//138 69//137 
s 4
f 63//124 80//151 70//152 64//125 
s 1
f 70//139 81//153 79//154 71//140 
s 4
f 80//151 77//155 81//156 70//152 
s 1
f 81//153 82//157 78//158 79//154 
s 4
f 82//159 81//156 77//155 
s 1
f 76//160 78//158 82//157 83//161 
f 84//162 85//163 86//164 87//165 
f 84//162 87//165 73//166 88//167 
f 88//167 73//166 72//168 83//161 
f 76//160 83//161 72//168 
s 4
f 77//155 75//169 83//170 82//159 
f 75//169 74//171 88//172 83//170 
f 74//171 89//173 84//174 88//172 
s 2
f 73//142 87//175 89//176 74//143 
f 87//175 86//177 90//178 89//176 
s 4
f 91//179 92//180 93//180 94//181 
f 95//182 91//179 94//181 85//183 
f 90//184 95//182 85//183 84//174 
f 89//173 90//184 84//174 
s 2
f 95//185 90//178 86//177 96//186 
f 96//186 97//187 92//187 91//188 
f 95//185 96//186 91//188 
s 1
f 85//163 94//189 96//190 86//164 
f 94//189 93//191 97//191 96//190 
s 8
f 4//192 30//192 1//192 
f 92//193 97//193 93//193 
# 89 polygons - 12 triangles

